# AST/ASF file generated using VICON BodyLanguage
# -----------------------------------------------
:version 1.10
:name VICON
:units
  mass 1.0
  length 0.45
  angle deg
:documentation
   .ast/.asf automatically generated from VICON data using
   VICON BodyBuilder and BodyLanguage model FoxedUp or BRILLIANT.MOD
:root
   order TX TY TZ RX RY RZ
   axis XYZ
   position 0 0 0  
   orientation 0 0 0 
:bonedata
  begin
     id 1 
     name lhipjoint
     direction 0.643824 -0.71708 0.266994 
     length 2.52133 
     axis 0 0 0  XYZ
  end
  begin
     id 2 
     name lfemur
     direction 0.34202 -0.939693 0  
     length 7.51824  
     axis 0 0 20  XYZ
    dof rx ry rz
    limits (-160.0 20.0)
           (-70.0 70.0)
           (-60.0 70.0)
  end
  begin
     id 3 
     name ltibia
     direction 0.34202 -0.939693 0   
     length 7.3685   
     axis 0 0 20   XYZ
    dof rx
    limits (-10.0 170.0)
  end
  begin
     id 4 
     name lfoot
     direction 0.105419 -0.289636 0.951314   
     length 2.20972   
     axis -90 7.62852e-016 20   XYZ
    dof rx rz
    limits (-45.0 90.0)
           (-70.0 20.0)
  end
  begin
     id 5 
     name ltoes
     direction 1.53549e-011 -4.21833e-011 1   
     length 1.10139   
     axis -90 7.62852e-016 20   XYZ
    dof rx
    limits (-90.0 20.0)
  end
  begin
     id 6 
     name rhipjoint
     direction -0.608823 -0.743445 0.276811   
     length 2.43192  
     axis 0 0 0  XYZ 
  end
  begin
     id 7 
     name rfemur
     direction -0.34202 -0.939693 0   
     length 7.69715   
     axis 0 0 -20   XYZ
    dof rx ry rz
    limits (-160.0 20.0)
           (-70.0 70.0)
           (-70.0 60.0)
  end
  begin
     id 8 
     name rtibia
     direction -0.34202 -0.939693 0   
     length 7.44924   
     axis 0 0 -20   XYZ
    dof rx
    limits (-10.0 170.0)
 end
 begin
     id 9 
     name rfoot
     direction -0.103614 -0.284677 0.953007   
     length 2.22623  
     axis -90 -7.62852e-016 -20   XYZ
    dof rx rz
    limits (-45.0 90.0)
           (-20.0 70.0)
  end
  begin
     id 10 
     name rtoes
     direction -1.53537e-011 -4.22026e-011 1   
     length 1.11   
     axis -90 -7.62852e-016 -20   XYZ
    dof rx
    limits (-90.0 20.0)
  end
  begin
     id 11 
     name lowerback
     direction -0.0101212 0.99662 -0.0815298   
     length 2.08277   
     axis 0 0 0   XYZ
    dof rx ry rz
    limits (-20.0 45.0)
           (-30.0 30.0)
           (-30.0 30.0)
  end
  begin
     id 12 
     name upperback
     direction 0.024314 0.999591 -0.0150645   
     length 2.08524   
     axis 0 0 0   XYZ
    dof rx ry rz
    limits (-20.0 45.0)
           (-30.0 30.0)
           (-30.0 30.0)
  end
  begin
     id 13 
     name thorax
     direction 0.0285959 0.999323 0.0231357   
     length 2.09645   
     axis 0 0 0   XYZ
    dof rx ry rz
    limits (-20.0 45.0)
           (-30.0 30.0)
           (-30.0 30.0)
  end
  begin
     id 14 
     name lowerneck
     direction -0.065512 0.979301 0.191515   
     length 1.63798   
     axis 0 0 0   XYZ
    dof rx ry rz
    limits (-20.0 45.0)
           (-30.0 30.0)
           (-30.0 30.0)
  end
  begin
     id 15 
     name upperneck
     direction 0.0498479 0.98191 -0.182667   
     length 1.68731   
     axis 0 0 0   XYZ
    dof rx ry rz
    limits (-20.0 45.0)
           (-30.0 30.0)
           (-30.0 30.0)
  end
  begin
     id 16
     name head
     direction 0.0230358 0.996257 -0.0833175  
     length 1.69785  
     axis 0 0 0   XYZ
    dof rx ry rz
    limits (-20.0 45.0)
           (-30.0 30.0)
           (-30.0 30.0)
  end
  begin
     id 17 
     name lclavicle
     direction 0.967963 0.201165 -0.150269  
     length 3.63976  
     axis 0 0 0   XYZ
    dof ry rz
    limits (-20.0 10.0)
           (0.0 20.0)
  end
  begin
     id 18 
     name lhumerus
     direction 1 -4.48954e-011 -2.92837e-028   
     length 5.32462   
     axis 180 -30 -90   XYZ
    dof rx ry rz
    limits (-60.0 90.0)
           (-90.0 90.0)
           (-90.0 90.0)
  end
  begin
     id 19
     name lradius
     direction 1 -4.48958e-011 -6.39511e-027   
     length 3.48402   
     axis 180 -30 -90   XYZ
    dof rx
    limits (-10.0 170.0)
  end
  begin
     id 20
     name lwrist
     direction 1 -4.48975e-011 -1.1413e-026   
     length 1.74201   
     axis 6.88575e-015 90 90   XYZ
    dof ry
    limits (-180.0 0.0)
 end
  begin
     id 21 
     name lhand
     direction 1 -4.48899e-011 -2.28192e-026   
     length 0.572476   
     axis 1.45643e-014 90 90   XYZ
    dof rx rz
    limits (-90.0 90.0)
           (-45.0 45.0)
  end
  begin
     id 22 
     name lfingers
     direction 1 -4.49155e-011 -4.5684e-026   
     length 0.461545   
     axis 2.91283e-014 90 90   XYZ
    dof rx
    limits (0.0 90.0)
  end
  begin
     id 23
     name lthumb
     direction 0.707107 -6.34943e-011 0.707107   
     length 0.662688   
     axis -90 45 -2.25915e-014   XYZ
    dof rx rz
    limits (-45.0 45.0)
           (-45.0 45.0)
  end
  begin
     id 24 
     name rclavicle
     direction -0.964103 0.264019 -0.0282629   
     length 3.54491  
     axis 0 0 0   XYZ 
    dof ry rz
    limits (-10.0 20.0)
           (-20.0 0.0)
  end
  begin
     id 25 
     name rhumerus
     direction -1 -4.48964e-011 -2.45032e-027  
     length 5.33589   
     axis 180 30 90   XYZ
    dof rx ry rz
    limits (-90.0 60.0)
           (-90.0 90.0)
           (-90.0 90.0)
  end
  begin
     id 26 
     name rradius
     direction -1 -4.48987e-011 -1.55093e-027   
     length 3.64134   
     axis 180 30 90   XYZ
    dof rx
    limits (-10.0 170.0)
  end
  begin
     id 27 
     name rwrist
     direction -1 -4.4897e-011 -1.14128e-026   
     length 1.82067   
     axis 6.88575e-015 -90 -90   XYZ
    dof ry
    limits (-180.0 0.0)
  end
  begin
     id 28
     name rhand
     direction -1 -4.49021e-011 -2.28301e-026   
     length 0.734811   
     axis 1.45643e-014 -90 -90   XYZ
    dof rx rz
    limits (-90.0 90.0)
           (-45.0 45.0)
  end
  begin
     id 29
     name rfingers
     direction -1 -4.48862e-011 -4.56319e-026   
     length 0.592424   
     axis 2.91283e-014 -90 -90   XYZ
    dof rx
    limits (0.0 90.0)
  end
  begin
     id 30
     name rthumb
     direction -0.707107 -6.34978e-011 0.707107   
     length 0.850605   
     axis -90 -45 2.25915e-014   XYZ
    dof rx rz
    limits (-45.0 45.0)
           (-45.0 45.0)
  end
:hierarchy
  begin
    root lhipjoint rhipjoint lowerback
    lhipjoint lfemur
    lfemur ltibia
    ltibia lfoot
    lfoot ltoes
    rhipjoint rfemur
    rfemur rtibia
    rtibia rfoot
    rfoot rtoes
    lowerback upperback
    upperback thorax
    thorax lowerneck lclavicle rclavicle
    lowerneck upperneck
    upperneck head
    lclavicle lhumerus
    lhumerus lradius
    lradius lwrist
    lwrist lhand lthumb
    lhand lfingers
    rclavicle rhumerus
    rhumerus rradius
    rradius rwrist
    rwrist rhand rthumb
    rhand rfingers
  end

#!OML:ASF F:\VICON\USERDATA\INSTALL\rory3\rory3.ASF
:FULLY-SPECIFIED
:DEGREES
133
root -0.727621 17.2855 0.128991 23.0366 -16.3443 11.4286
lowerback 28.6446 0.018443 2.17635
upperback 7.91145 1.11272 6.3972
thorax -7.00632 0.456121 5.53877
lowerneck -23.2868 -9.57907 -12.721
upperneck 21.1956 -10.8198 7.48829
head 11.9378 -4.95243 2.9515
rclavicle 7.95139e-014 7.95139e-014
rhumerus 1.5602 1.79618 -64.9514
rradius 64.6747
rwrist 36.16
rhand -50.7117 -14.1302
rfingers 7.12502
rthumb -23.2721 -42.7438
lclavicle 7.95139e-014 7.95139e-014
lhumerus -9.10466 -22.2811 90.2134
lradius 54.1839
lwrist 0.833174
lhand -23.6293 22.6546
lfingers 7.12502
lthumb 2.83537 52.6155
rfemur -56.6148 -0.720234 1.38626
rtibia 45.3756
rfoot -11.3075 -3.97029
rtoes 6.47113
lfemur -51.1572 11.2428 -32.1036
ltibia 44.961
lfoot -11.1779 3.60839
ltoes -16.3874
134
root -0.726534 17.2852 0.116676 23.3024 -16.6561 11.5708
lowerback 29.4055 0.00879063 2.58261
upperback 8.19149 1.22685 6.36753
thorax -7.05424 0.500418 5.24059
lowerneck -23.6942 -9.64861 -12.6625
upperneck 20.8196 -10.8499 7.4641
head 11.8657 -4.9544 2.91369
rclavicle 3.81667e-014 1.43125e-014
rhumerus 3.12632 1.33794 -64.4025
rradius 63.6565
rwrist 36.4785
rhand -51.0126 -14.452
rfingers 7.12502
rthumb -23.5607 -43.0288
lclavicle 3.81667e-014 1.43125e-014
lhumerus -8.02424 -22.7925 90.0824
lradius 54.4409
lwrist 1.40304
lhand -23.6376 22.4535
lfingers 7.12502
lthumb 2.82736 52.4145
rfemur -57.1157 -0.796752 1.27346
rtibia 45.3992
rfoot -11.0612 -3.8758
rtoes 5.52694
lfemur -51.1407 10.7785 -31.6616
ltibia 43.7975
lfoot -11.1791 5.17264
ltoes -16.5712
135
root -0.722497 17.2869 0.105455 23.3517 -16.7648 11.5804
lowerback 30.2724 -0.136921 3.35983
upperback 8.64731 1.2714 6.33183
thorax -6.93043 0.507716 4.74148
lowerneck -24.1371 -9.80714 -12.7546
upperneck 20.2454 -11.0128 7.73678
head 11.7692 -4.99003 2.98283
rclavicle 4.45278e-014 3.81667e-014
rhumerus 5.03465 0.656085 -63.8963
rradius 62.3602
rwrist 36.7764
rhand -51.3453 -14.4315
rfingers 7.12502
rthumb -23.8798 -42.967
lclavicle 4.45278e-014 3.81667e-014
lhumerus -6.53905 -23.0993 89.745
lradius 54.7071
lwrist 1.33232
lhand -23.4929 22.374
lfingers 7.12502
lthumb 2.9671 52.3331
rfemur -57.2638 -0.760672 1.24886
rtibia 45.3954
rfoot -11.0038 -3.89219
rtoes 5.09616
lfemur -50.8201 10.2075 -30.9541
ltibia 42.5148
lfoot -10.955 6.97436
ltoes -18.2123
136
root -0.71459 17.2767 0.0926065 23.6002 -16.9916 11.7799
lowerback 30.8804 -0.242563 3.87875
upperback 9.01906 1.2894 6.28875
thorax -6.77695 0.508384 4.39032
lowerneck -24.4229 -9.91532 -12.8796
upperneck 19.6309 -11.0864 7.92153
head 11.6152 -5.00453 3.04592
rclavicle -6.99722e-014 6.36111e-015
rhumerus 7.01127 0.00682551 -63.3898
rradius 60.8633
rwrist 37.0761
rhand -51.7562 -14.4209
rfingers 7.12502
rthumb -24.2738 -42.9042
lclavicle -6.99722e-014 6.36111e-015
lhumerus -5.07122 -23.1591 89.4996
lradius 55.1104
lwrist 1.33124
lhand -23.3038 22.8135
lfingers 7.12502
lthumb 3.14971 52.77
rfemur -57.7645 -0.830452 0.987417
rtibia 45.456
rfoot -10.8766 -3.88246
rtoes 5.12809
lfemur -50.7723 9.66764 -30.5881
ltibia 41.1922
lfoot -10.4622 8.29337
ltoes -19.5675
137
root -0.707599 17.2554 0.0800141 24.1959 -17.4747 12.0599
lowerback 31.2544 -0.145542 4.04133
upperback 9.16829 1.46225 6.25101
thorax -6.78309 0.585668 4.19548
lowerneck -24.6363 -9.99068 -12.8479
upperneck 19.1745 -11.1266 7.85924
head 11.4777 -5.02459 3.00206
rclavicle 3.49861e-014 -1.20861e-013
rhumerus 8.73332 -0.591286 -62.7881
rradius 59.2392
rwrist 37.1504
rhand -52.2075 -13.8468
rfingers 7.12502
rthumb -24.7064 -42.2715
lclavicle 3.49861e-014 -1.20861e-013
lhumerus -3.89067 -23.5489 89.4676
lradius 55.4234
lwrist 1.6745
lhand -23.4214 23.1804
lfingers 7.12502
lthumb 3.0361 53.1385
rfemur -58.7818 -0.851404 0.522686
rtibia 45.5974
rfoot -10.7467 -3.81144
rtoes 5.62929
lfemur -51.1041 9.29172 -30.4924
ltibia 39.8899
lfoot -9.99339 8.90062
ltoes -19.9716
138
root -0.702715 17.231 0.069977 24.8543 -17.9397 12.2891
lowerback 31.5414 0.00212256 4.212
upperback 9.31661 1.69652 6.24571
thorax -6.75104 0.691756 4.00819
lowerneck -24.9349 -10.0968 -12.75
upperneck 18.7355 -11.2157 7.76206
head 11.3609 -5.06405 2.92365
rclavicle -7.31528e-014 -2.70347e-014
rhumerus 10.3905 -1.2969 -62.0992
rradius 57.5706
rwrist 37.3662
rhand -52.5033 -13.9391
rfingers 7.12502
rthumb -24.9899 -42.3248
lclavicle -7.31528e-014 -2.70347e-014
lhumerus -2.65999 -24.3008 89.4446
lradius 55.546
lwrist 2.09412
lhand -23.4814 23.4291
lfingers 7.12502
lthumb 2.97817 53.388
rfemur -59.8785 -0.92938 0.150238
rtibia 45.8049
rfoot -10.6507 -3.69345
rtoes 6.13263
lfemur -51.4955 9.05793 -30.4132
ltibia 38.6245
lfoot -9.371 8.87958
ltoes -20.3154
139
root -0.695509 17.2086 0.0644247 25.4832 -18.2896 12.5657
lowerback 31.7212 0.0610094 4.4078
upperback 9.50883 1.82129 6.28815
thorax -6.61268 0.747294 3.89823
lowerneck -25.2645 -10.1867 -12.7643
upperneck 18.2573 -11.2371 7.67064
head 11.2348 -5.08073 2.87758
rclavicle 6.36111e-015 9.22361e-014
rhumerus 12.386 -1.98852 -61.4138
rradius 55.5023
rwrist 37.813
rhand -52.6105 -14.532
rfingers 7.12502
rthumb -25.0926 -42.9033
lclavicle 6.36111e-015 9.22361e-014
lhumerus -1.25885 -24.9236 89.4567
lradius 55.4915
lwrist 2.46142
lhand -23.9459 23.5792
lfingers 7.12502
lthumb 2.52959 53.544
rfemur -60.9095 -1.163 -0.197339
rtibia 46.0445
rfoot -10.5393 -3.55288
rtoes 6.27458
lfemur -51.9015 8.83512 -30.4078
ltibia 37.4211
lfoot -8.35499 8.51224
ltoes -20.7468
140
root -0.686252 17.1862 0.0588089 26.1467 -18.5346 12.7005
lowerback 32.511 0.0130973 4.81538
upperback 9.09497 1.95719 6.48807
thorax -6.80169 0.770301 3.59138
lowerneck -25.366 -10.2476 -12.961
upperneck 17.8515 -11.2089 7.66497
head 11.1086 -5.08272 2.90768
rclavicle -5.08889e-014 -6.83819e-014
rhumerus 14.3769 -2.50222 -60.7416
rradius 53.0108
rwrist 38.1065
rhand -52.5744 -14.8473
rfingers 7.12502
rthumb -25.058 -43.2234
lclavicle -5.08889e-014 -6.83819e-014
lhumerus -0.259471 -25.5148 89.6576
lradius 55.522
lwrist 3.14176
lhand -24.9361 23.4807
lfingers 7.12502
lthumb 1.57326 53.4546
rfemur -61.8942 -1.37746 -0.388143
rtibia 46.2695
rfoot -10.4731 -3.48408
rtoes 6.45093
lfemur -52.3272 8.60352 -30.2626
ltibia 36.3272
lfoot -6.99875 8.03152
ltoes -20.5568
141
root -0.676299 17.1597 0.0520414 26.6515 -18.6884 12.8314
lowerback 33.4269 -0.0613039 5.13963
upperback 8.8515 2.07732 6.62796
thorax -7.4127 0.809595 3.52781
lowerneck -25.365 -10.2572 -13.1149
upperneck 17.5547 -11.1038 7.48513
head 10.9824 -5.07018 2.88541
rclavicle -3.18055e-015 -1.24042e-013
rhumerus 16.2476 -2.87884 -60.0719
rradius 50.2982
rwrist 38.2786
rhand -52.5758 -14.6454
rfingers 7.12502
rthumb -25.0593 -43.0214
lclavicle -3.18055e-015 -1.24042e-013
lhumerus 0.483251 -25.6676 89.9753
lradius 55.4424
lwrist 2.40809
lhand -24.6474 23.2909
lfingers 7.12502
lthumb 1.85208 53.2626
rfemur -62.6814 -1.58414 -0.575076
rtibia 46.4755
rfoot -10.4063 -3.35926
rtoes 7.05763
lfemur -52.6304 8.42911 -30.1753
ltibia 35.3948
lfoot -5.74558 7.44759
ltoes -20.6868
142
root -0.65901 17.1364 0.0528992 27.2506 -18.9835 12.8519
lowerback 33.9845 -0.0380915 5.4774
upperback 8.76916 2.28127 6.78938
thorax -7.7098 0.890052 3.4494
lowerneck -25.4923 -10.2948 -13.2439
upperneck 17.2213 -11.0261 7.29539
head 10.8658 -5.06593 2.84691
rclavicle 2.54444e-014 3.57812e-014
rhumerus 18.2634 -3.45651 -59.3553
rradius 47.4862
rwrist 38.3867
rhand -52.4308 -14.2067
rfingers 7.12502
rthumb -24.9204 -42.602
lclavicle 2.54444e-014 3.57812e-014
lhumerus 1.50342 -26.0083 90.3063
lradius 55.1195
lwrist 1.86186
lhand -24.6498 22.7935
lfingers 7.12502
lthumb 1.84982 52.7653
rfemur -63.5739 -1.78165 -0.651286
rtibia 46.6338
rfoot -10.2101 -3.17625
rtoes 7.18808
lfemur -53.0059 8.333 -30.0906
ltibia 34.6824
lfoot -5.03177 7.19571
ltoes -20.423
143
root -0.646329 17.1181 0.0502414 27.732 -19.4437 12.8965
lowerback 34.2098 -0.108238 6.04245
upperback 9.01775 2.32898 6.46621
thorax -7.46365 0.91292 2.7941
lowerneck -25.7633 -10.2522 -12.7504
upperneck 16.6949 -11.0751 7.26331
head 10.6894 -5.05542 2.74544
rclavicle 1.90833e-014 -1.35174e-014
rhumerus 20.6465 -4.79899 -59.6471
rradius 44.4124
rwrist 39.1853
rhand -52.1729 -13.8345
rfingers 7.12502
rthumb -24.6732 -42.2639
lclavicle 1.90833e-014 -1.35174e-014
lhumerus 3.129 -26.7373 89.6944
lradius 54.7557
lwrist 1.56099
lhand -23.9653 22.5494
lfingers 7.12502
lthumb 2.51092 52.5144
rfemur -64.393 -1.85341 -0.77
rtibia 46.7589
rfoot -10.0142 -3.01089
rtoes 6.90369
lfemur -53.3038 8.54855 -30.2489
ltibia 34.1761
lfoot -4.71442 7.09517
ltoes -20.6848
144
root -0.637243 17.0953 0.0425196 28.311 -20.0251 12.8979
lowerback 34.5483 0.0957102 6.05747
upperback 9.13529 2.59625 6.50514
thorax -7.46516 1.03014 2.73167
lowerneck -26.1676 -10.2936 -12.5805
upperneck 16.4068 -11.0691 7.02461
head 10.6228 -5.06346 2.62361
rclavicle 3.81667e-014 -3.18055e-015
rhumerus 22.8296 -5.9782 -59.5946
rradius 41.4439
rwrist 40.2419
rhand -51.8979 -13.2384
rfingers 7.12502
rthumb -24.4096 -41.7035
lclavicle 3.81667e-014 -3.18055e-015
lhumerus 4.42704 -27.1765 89.7028
lradius 54.505
lwrist 1.10808
lhand -22.2909 22.2866
lfingers 7.12502
lthumb 4.12782 52.2264
rfemur -65.3594 -1.8416 -0.894082
rtibia 46.8367
rfoot -9.78538 -2.85851
rtoes 6.52807
lfemur -53.7884 8.91496 -30.4961
ltibia 33.904
lfoot -4.63499 7.05834
ltoes -22.3366
145
root -0.629587 17.0765 0.0336961 28.9016 -20.4231 12.9491
lowerback 34.7832 -0.0280446 6.56219
upperback 9.21605 2.57707 6.12142
thorax -7.4008 1.02313 2.07066
lowerneck -26.4141 -10.2237 -12.1276
upperneck 15.9992 -11.1112 7.12514
head 10.498 -5.03851 2.57939
rclavicle -1.27222e-014 8.34896e-014
rhumerus 24.9193 -7.43396 -60.4026
rradius 38.5232
rwrist 40.9986
rhand -51.4839 -11.4962
rfingers 7.12502
rthumb -24.0127 -40.0141
lclavicle -1.27222e-014 8.34896e-014
lhumerus 5.81334 -27.8394 88.9365
lradius 54.318
lwrist 0.803744
lhand -21.4362 22.0449
lfingers 7.12502
lthumb 4.95318 51.967
rfemur -66.2439 -1.93524 -1.02653
rtibia 46.8899
rfoot -9.51025 -2.73211
rtoes 6.40076
lfemur -54.3346 9.23888 -30.8546
ltibia 33.7814
lfoot -4.83015 6.74115
ltoes -23.2249
146
root -0.620284 17.063 0.0243666 29.5308 -20.7347 13.0148
lowerback 35.1249 -0.0580663 6.83698
upperback 9.12353 2.66052 6.03322
thorax -7.60165 1.05262 1.804
lowerneck -26.4893 -10.1607 -11.9614
upperneck 15.6649 -11.0425 7.05066
head 10.3658 -5.00718 2.54067
rclavicle -5.40694e-014 -6.52014e-014
rhumerus 26.8976 -8.64927 -60.8916
rradius 35.6942
rwrist 41.2183
rhand -50.6916 -9.98035
rfingers 7.12502
rthumb -23.2527 -38.5964
lclavicle -5.40694e-014 -6.52014e-014
lhumerus 6.96161 -28.3714 88.6659
lradius 54.1207
lwrist 0.589239
lhand -21.2718 22.1238
lfingers 7.12502
lthumb 5.11196 52.0421
rfemur -67.1332 -2.122 -1.14616
rtibia 46.9528
rfoot -9.2577 -2.58241
rtoes 6.47415
lfemur -54.9699 9.54439 -31.3191
ltibia 33.7359
lfoot -5.20941 6.07611
ltoes -22.8453
147
root -0.610005 17.0505 0.0233393 30.0585 -21.0973 13.0976
lowerback 35.3732 0.193866 6.61122
upperback 9.17295 2.94623 6.43278
thorax -7.68205 1.17268 2.23912
lowerneck -26.8575 -10.2 -12.1311
upperneck 15.4825 -10.8866 6.65236
head 10.3257 -4.98913 2.44255
rclavicle -2.8625e-014 2.78299e-014
rhumerus 29.043 -9.73468 -60.7471
rradius 33.059
rwrist 40.9451
rhand -49.6785 -9.26492
rfingers 7.12502
rthumb -22.2805 -38.0005
lclavicle -2.8625e-014 2.78299e-014
lhumerus 8.15758 -28.6929 89.1943
lradius 53.8837
lwrist 0.391013
lhand -21.2488 22.2355
lfingers 7.12502
lthumb 5.13409 52.1533
rfemur -67.8897 -2.34148 -1.24263
rtibia 47.0211
rfoot -9.08727 -2.29834
rtoes 6.94823
lfemur -55.473 9.7455 -31.7253
ltibia 33.6517
lfoot -5.56184 5.55331
ltoes -22.7393
